<svg id="Layer_1" data-name="Layer 1" xmlns="http://www.w3.org/2000/svg" xmlns:xlink="http://www.w3.org/1999/xlink" viewBox="0 0 363.11 162.42"><defs><style>.cls-1{fill:none;}.cls-2{clip-path:url(#clip-path);}.cls-3{fill:#048442;}.cls-3,.cls-4{fill-rule:evenodd;}.cls-4,.cls-5{fill:#231f20;}</style><clipPath id="clip-path"><rect class="cls-1" width="363.11" height="162.42"/></clipPath></defs><title>logo</title><g class="cls-2"><path class="cls-3" d="M230.67,5.18a86.34,86.34,0,0,0-85.42,15.48c-12.12,10.47-23.16,23.86-29.6,38.65h7c9-15.82,23.35-34.12,43.57-34.12,16.37,0,30.91,11.37,44.39,19.18,6.11,3.53,17.84,10.12,30.2,13.37,14.83,3.89,27.41,2.5,31.36,1.69,1.64-10.31-4.16-23-7.46-27.68a71.14,71.14,0,0,0-34-26.57"/><path class="cls-4" d="M47.77,77.37H68.59c.94-4.8,2.23-9.54,2.06-14.46C70.46,57.64,68.81,50,61.4,46.64c-11.85-5.34-27.89-1.28-27.89-1.28S21.77,47,14,60.71,2.48,95.46,2.48,95.46,0,108.7,0,116.14-2,140.32,24.1,140.55s33.35-17.08,33.35-17.08,5.23-10,6.63-20.46H42.81s-1.74,10.81-4.42,16.5-6.62,8.25-12.55,6.51-2.9-17.2-2.9-17.2S28.05,79.07,30.84,72,35.37,58,43.27,57.8c9.25-.27,5.12,14.5,4.5,19.57M290.24,137H268.88l19-92.55h21.36Zm33.88,0,19-92.55H321.8l-19,92.55Zm-68.05,0,14.24-69.25H249L234.71,137ZM219.59,67.65h19.74l-14.6,69.78a35.69,35.69,0,0,1-5.8,13.54,24.61,24.61,0,0,1-11.38,8.51s-14.86,5.11-25.23,1.86-11.84-10.14-11.84-10.14a35.31,35.31,0,0,1-.46-8.13c19,0,19,.31,19,.31v2.56s0,4.41,5.65,4.41a7.6,7.6,0,0,0,7.28-4.8,43,43,0,0,0,2.32-7.74c.7-3.87,2.71-13.23,2.71-13.23l-1.63-.08s-4.18,10.76-19.5,10.84S172,117.77,172,117.77s.23-13.7,4.26-25.31,8.9-25.22,24.84-26.77,14.93,12,14.93,12h1.55ZM208.15,80.78c-2.68.23-5.14.34-8.38,5.7s-6,23.12-6,23.12-2.23,10.16,6.15,10.72,10.61-12.84,10.61-12.84,3-13.07,3-20-5.36-6.7-5.36-6.7M138.37,67.56c.59,2.22-.11,6.89-.11,6.89l-12.82,62.84h21l8.37-39.51s.81-7.09,7.2-10.69,14.82-1.78,14.82-1.78l4.07-19.56a22.56,22.56,0,0,0-21.63,13.49h-1.57l2.44-11.68ZM91,87.32H72.91S76.16,70.82,93,67.21s26.61.82,26.61.82,8.83,3,7.79,13.83-6.16,30.68-7.44,38-3,10.34-2,17.34c-20.12,0-20.3.12-20.3.12l.59-8.06L97,129.2s-6.8,11.93-23.54,9.61-8.95-23.25-8.95-23.25,2.91-12.78,15.58-16.15,18-4.54,18-4.54,9.13-1.16,9.48-10.67c.22-6-5.19-7.41-8.94-6.51-4.11,1-6.63,4.84-7.63,9.63m12.78,15.22c-4.23,1.93-8.91,1.59-13.2,4.14a12.89,12.89,0,0,0-6.23,13.4C86.14,131,99,124.93,100.8,116.61Z"/><path class="cls-5" d="M348.35,54.43l1.55-9.06h-2.76l.21-1.17H354l-.2,1.17H351l-1.55,9.06Zm5,0h1.09l1.12-6.52c.09-.53.19-1.24.28-2.14,0,.8.09,1.5.17,2.1l.85,6.56H358l3.13-6.69c.36-.77.66-1.49.9-2.15q-.57,2.14-.87,3.87l-.88,5h1.11l1.75-10.23h-1.4l-2.95,6.34a28.32,28.32,0,0,0-1.17,2.79c0-.8-.11-1.63-.22-2.5l-.85-6.63h-1.39Z"/></g></svg>