<svg xmlns="http://www.w3.org/2000/svg" viewBox="0 0 93.99 42"><defs><style>.cls-1{fill:#231f20;}.cls-1,.cls-2{fill-rule:evenodd;}.cls-2{fill:#009247;}</style></defs><g id="Layer_2" data-name="Layer 2"><g id="Layer_1-2" data-name="Layer 1"><path class="cls-1" d="M26.93,17.07c2.76,0,4.45.49,5.29,1.53a3.46,3.46,0,0,1,.7,2.27,8.56,8.56,0,0,1-.2,1.77L30.83,31.8a14.55,14.55,0,0,0-.42,3,4.11,4.11,0,0,0,.06.72H25.28c0-.06,0-.11,0-.17,0-.38,0-.78.06-1.2l.06-.75H25.1l-.11.18A6,6,0,0,1,20.13,36a3.94,3.94,0,0,1-3.2-1.14c-.68-.84-.85-2.15-.49-3.91.71-3.42,2.27-4.86,6.17-5.74l2.59-.59a2.84,2.84,0,0,0,2.55-2.34,2,2,0,0,0-.24-1.67,1.71,1.71,0,0,0-1.38-.53c-1.39,0-2.12.71-2.58,2.5H18.92c1.24-4.81,5.52-5.55,8-5.55Zm-.06,9.43a1.11,1.11,0,0,1-.31.18c-.33.12-1,.24-1.5.35a8.12,8.12,0,0,0-1.17.37,3.27,3.27,0,0,0-2,2.7,2.29,2.29,0,0,0,.3,2,1.42,1.42,0,0,0,1.18.53c2,0,2.66-1.94,3-3.4l.56-2.72h0l-.55,2.72.55-2.72Z"/><path class="cls-1" d="M45.47,33.94c-1.1-1.34-1.31-3.46-.56-7.22,1.65-8.2,4.77-9.65,7.48-9.65,1.29,0,3.23.48,3.46,2.74l0,.35h.37s.44-2.13.54-2.6h5c-.18.88-3.74,18-3.74,18-.89,4.3-3.65,6.44-8.72,6.44-4.69,0-5.39-2.77-5.49-3.62A9.29,9.29,0,0,1,44,37.09h4.9a3.08,3.08,0,0,0,.19,1.27,1.17,1.17,0,0,0,1.15.54c1,0,2-.29,2.5-2.63l.84-4h-.41l-.11.19A5.45,5.45,0,0,1,48.17,35a3.25,3.25,0,0,1-2.7-1.1Zm5-7.62c-.55,2.67-.52,3.69,0,4.36a1.45,1.45,0,0,0,1.22.48c1.53,0,2.28-.93,3.06-4.68.55-2.69.61-4.4.08-5.06A1.43,1.43,0,0,0,53.68,21c-1.58,0-2.43,1.61-3.21,5.37Z"/><path class="cls-1" d="M69.93,17.56l-3.73,18H60.75c.18-.87,3.6-17.43,3.72-18Z"/><path class="cls-1" d="M80,11.55c-.18.89-4.85,23.42-5,24H69.52c.19-.89,4.85-23.42,5-24Z"/><path class="cls-1" d="M88.7,11.55c-.19.89-4.85,23.42-5,24H78.27c.19-.89,4.85-23.42,5-24Z"/><path class="cls-1" d="M46.25,17.07a6,6,0,0,0-5,3.26l-.11.21h-.4s.48-2.32.62-3H35.74a4,4,0,0,1,.06.71,11.22,11.22,0,0,1-.22,2.05c-1,4.89-3,14.58-3.16,15.24h5.46l2.06-9.93c.51-2.48,2-3.64,4.57-3.64a9.41,9.41,0,0,1,1.23.08c.12-.58.88-4.26,1-5Z"/><path class="cls-1" d="M1.07,34.62C-.29,33-.35,29.87.87,24,2.81,14.61,5.62,11.44,12,11.44c2.55,0,4.34.61,5.32,1.81a4.86,4.86,0,0,1,1,3.16,11.31,11.31,0,0,1-.26,2.4s-.17.8-.26,1.26H12.36s.4-2.56.4-3.13a2,2,0,0,0-.27-1.3,1.46,1.46,0,0,0-1.22-.6c-2.37,0-3.15,2.26-4.5,8.8-1,5.07-1.43,7.4-.62,8.4a1.73,1.73,0,0,0,1.42.56c1.87,0,2.61-1.61,3.55-6.07h5.41c-.1.52-.28,1.37-.28,1.37-1.14,5.5-4.36,8.29-9.59,8.29-2.82,0-4.6-.56-5.59-1.77Z"/><polygon class="cls-1" points="89.86 11.54 91.5 11.54 91.44 11.8 90.77 11.8 90.28 14.15 89.99 14.15 90.48 11.8 89.81 11.8 89.86 11.54 89.86 11.54"/><path class="cls-1" d="M93.48,11.54H94l-.54,2.61h-.29L93.6,12c0-.11.05-.22.07-.33h0c-.06.15-.1.25-.15.35l-1,2.13h-.34L92.08,12a2.92,2.92,0,0,1,0-.32h0L92,12l-.44,2.14h-.29l.54-2.61h.51l.09,2a1.94,1.94,0,0,1,0,.39h0c0-.13.09-.26.15-.39l.94-2Z"/><path class="cls-2" d="M70.39,15.43c.43-9.89-11.5-17.32-22.63-15s-16.51,12-17.91,15h1.82c2.43-4.09,4.9-7.27,9.1-8.46,2.67-.75,4.77-.58,9.94,2.3,2.38,1.33,7.76,5.32,13.54,6.12a35,35,0,0,0,6.14.06Z"/></g></g></svg>